<svg xmlns="http://www.w3.org/2000/svg" width="1080" height="1350" viewBox="0 0 1080 1350">
    <rect width="1080" height="1350" fill="#F2F2F2"/>
    
    
    <g transform="translate(72 100) scale(0.58)">
      <text x="0" y="0" fill="#151A38" font-family="Georgia, 'Times New Roman', serif" font-size="58" letter-spacing="7">COSMO</text>
      <circle cx="251" cy="-13" r="5.5" fill="#C8A45C"/>
    </g>
    <text x="1008" y="100" text-anchor="end" fill="#656C83" font-family="Arial" font-size="22" letter-spacing="4">PACKAGING CHECKLIST</text>
    <circle cx="850" cy="360" r="165" fill="#E4E9F5"/>
    <g transform="translate(735 245) scale(1.05)" fill="none" stroke="#151A38" stroke-width="5" stroke-linejoin="round"><path d="M20 58L112 8l92 50-92 52z"/><path d="M20 58v104l92 52 92-52V58M112 110v104"/></g>
    <text x="72" y="390" fill="#6199F7" font-family="Georgia" font-size="108">04</text>
    <text x="72" y="560" fill="#151A38" font-family="Arial, Helvetica, sans-serif" font-size="70" font-weight="700" letter-spacing="0" text-anchor="start"><tspan x="72" dy="0">The structure</tspan></text>
    <text x="72" y="790" fill="#444B63" font-family="Arial, Helvetica, sans-serif" font-size="34" font-weight="400" letter-spacing="0" text-anchor="start"><tspan x="72" dy="0">Preferred format—or the practical problem the</tspan><tspan x="72" dy="47.599999999999994">packaging needs to solve.</tspan></text>
    <rect x="72" y="1080" width="936" height="92" rx="18" fill="#151A38"/>
      <text x="108" y="1137" fill="#F2F2F2" font-family="Arial" font-size="26">Separate what is confirmed from what still needs guidance.</text>
    
    <line x1="72" y1="1264" x2="1008" y2="1264" stroke="#D5D9E4" stroke-width="2"/>
    <text x="72" y="1310" fill="#6E7488" font-family="Arial" font-size="22" letter-spacing="3">THECOSMOPACKAGING.COM</text>
    <text x="1008" y="1310" text-anchor="end" fill="#151A38" font-family="Arial" font-size="24">05 / 08</text>
  
  </svg>